<svg width="321" height="88" viewBox="0 0 321 88" fill="none" xmlns="http://www.w3.org/2000/svg">
<path d="M158.06 22.1919V12.8719L154.42 19.8119H152.88L149.24 12.8719V22.1919H146.48V7.99189H149.44L153.64 16.0719L157.88 7.99189H160.82V22.1919H158.06ZM163.525 22.1919V11.7119H166.205V22.1919H163.525ZM163.525 10.2519V7.59189H166.205V10.2519H163.525ZM173.482 22.3919C172.642 22.3919 171.882 22.2519 171.202 21.9719C170.522 21.6786 169.942 21.2852 169.462 20.7919C168.982 20.2852 168.609 19.7119 168.342 19.0719C168.089 18.4186 167.962 17.7319 167.962 17.0119C167.962 16.0119 168.182 15.0986 168.622 14.2719C169.076 13.4452 169.716 12.7852 170.542 12.2919C171.382 11.7852 172.369 11.5319 173.502 11.5319C174.649 11.5319 175.629 11.7852 176.442 12.2919C177.256 12.7852 177.876 13.4452 178.302 14.2719C178.742 15.0852 178.962 15.9652 178.962 16.9119C178.962 17.0719 178.956 17.2386 178.942 17.4119C178.929 17.5719 178.916 17.7052 178.902 17.8119H170.802C170.856 18.3452 171.009 18.8119 171.262 19.2119C171.529 19.6119 171.862 19.9186 172.262 20.1319C172.676 20.3319 173.116 20.4319 173.582 20.4319C174.116 20.4319 174.616 20.3052 175.082 20.0519C175.562 19.7852 175.889 19.4386 176.062 19.0119L178.362 19.6519C178.109 20.1852 177.742 20.6586 177.262 21.0719C176.796 21.4852 176.242 21.8119 175.602 22.0519C174.962 22.2786 174.256 22.3919 173.482 22.3919ZM170.742 16.1119H176.222C176.169 15.5786 176.016 15.1186 175.762 14.7319C175.522 14.3319 175.202 14.0252 174.802 13.8119C174.402 13.5852 173.956 13.4719 173.462 13.4719C172.982 13.4719 172.542 13.5852 172.142 13.8119C171.756 14.0252 171.436 14.3319 171.182 14.7319C170.942 15.1186 170.796 15.5786 170.742 16.1119ZM170.222 9.89189L172.342 7.87189H174.282L176.402 9.89189L175.022 10.5319L173.322 9.27189L171.622 10.5319L170.222 9.89189ZM174.682 7.25189C174.282 7.25189 173.936 7.17856 173.642 7.03189C173.362 6.87189 173.102 6.71856 172.862 6.57189C172.622 6.42523 172.356 6.35189 172.062 6.35189C171.769 6.35189 171.549 6.43189 171.402 6.59189C171.269 6.73856 171.182 6.89189 171.142 7.05189C171.116 7.21189 171.102 7.29856 171.102 7.31189H169.622C169.622 7.19189 169.662 6.99189 169.742 6.71189C169.822 6.43189 169.949 6.14523 170.122 5.85189C170.309 5.54523 170.549 5.28523 170.842 5.07189C171.149 4.85856 171.522 4.75189 171.962 4.75189C172.376 4.75189 172.716 4.83189 172.982 4.99189C173.249 5.15189 173.502 5.31189 173.742 5.47189C173.996 5.61856 174.282 5.69189 174.602 5.69189C174.922 5.69189 175.156 5.61189 175.302 5.45189C175.449 5.29189 175.542 5.13189 175.582 4.97189C175.636 4.81189 175.662 4.71856 175.662 4.69189H177.142C177.142 4.78523 177.102 4.96523 177.022 5.23189C176.942 5.49856 176.802 5.79189 176.602 6.11189C176.416 6.41856 176.162 6.68523 175.842 6.91189C175.536 7.13856 175.149 7.25189 174.682 7.25189ZM190.335 22.1919H187.655V16.3119C187.655 15.4719 187.508 14.8586 187.215 14.4719C186.922 14.0852 186.515 13.8919 185.995 13.8919C185.635 13.8919 185.268 13.9852 184.895 14.1719C184.535 14.3586 184.208 14.6186 183.915 14.9519C183.622 15.2719 183.408 15.6452 183.275 16.0719V22.1919H180.595V11.7119H183.015V13.6519C183.282 13.1986 183.622 12.8186 184.035 12.5119C184.448 12.1919 184.922 11.9519 185.455 11.7919C186.002 11.6186 186.575 11.5319 187.175 11.5319C187.828 11.5319 188.362 11.6519 188.775 11.8919C189.202 12.1186 189.522 12.4319 189.735 12.8319C189.962 13.2186 190.115 13.6586 190.195 14.1519C190.288 14.6452 190.335 15.1452 190.335 15.6519V22.1919ZM203.75 22.3919C202.937 22.3919 202.217 22.2119 201.59 21.8519C200.977 21.4786 200.497 20.9786 200.15 20.3519V26.4519H197.47V11.7119H199.81V13.5119C200.21 12.8986 200.717 12.4186 201.33 12.0719C201.943 11.7119 202.643 11.5319 203.43 11.5319C204.137 11.5319 204.783 11.6719 205.37 11.9519C205.97 12.2319 206.49 12.6252 206.93 13.1319C207.37 13.6252 207.71 14.1986 207.95 14.8519C208.203 15.4919 208.33 16.1852 208.33 16.9319C208.33 17.9452 208.13 18.8652 207.73 19.6919C207.343 20.5186 206.803 21.1786 206.11 21.6719C205.43 22.1519 204.643 22.3919 203.75 22.3919ZM202.85 20.1119C203.263 20.1119 203.637 20.0252 203.97 19.8519C204.303 19.6786 204.59 19.4452 204.83 19.1519C205.083 18.8452 205.27 18.5052 205.39 18.1319C205.523 17.7452 205.59 17.3452 205.59 16.9319C205.59 16.4919 205.517 16.0852 205.37 15.7119C205.237 15.3386 205.037 15.0119 204.77 14.7319C204.503 14.4386 204.19 14.2119 203.83 14.0519C203.483 13.8919 203.103 13.8119 202.69 13.8119C202.437 13.8119 202.177 13.8586 201.91 13.9519C201.657 14.0319 201.41 14.1519 201.17 14.3119C200.93 14.4719 200.717 14.6586 200.53 14.8719C200.357 15.0852 200.23 15.3186 200.15 15.5719V18.0319C200.31 18.4186 200.523 18.7719 200.79 19.0919C201.07 19.4119 201.39 19.6652 201.75 19.8519C202.11 20.0252 202.477 20.1119 202.85 20.1119ZM219.886 22.1919H217.206V16.3119C217.206 15.4986 217.046 14.8919 216.726 14.4919C216.419 14.0919 215.992 13.8919 215.446 13.8919C215.126 13.8919 214.786 13.9852 214.426 14.1719C214.066 14.3586 213.739 14.6186 213.446 14.9519C213.166 15.2719 212.959 15.6452 212.826 16.0719V22.1919H210.146V7.59189H212.826V13.6519C213.212 12.9852 213.739 12.4652 214.406 12.0919C215.072 11.7186 215.799 11.5319 216.586 11.5319C217.266 11.5319 217.819 11.6519 218.246 11.8919C218.672 12.1186 219.006 12.4319 219.246 12.8319C219.486 13.2186 219.652 13.6586 219.746 14.1519C219.839 14.6319 219.886 15.1319 219.886 15.6519V22.1919ZM222.216 22.1919V11.7119H224.896V22.1919H222.216ZM224.436 10.4919L222.716 9.97189L223.796 7.59189H226.296L224.436 10.4919ZM231.478 16.9519C231.478 15.9386 231.678 15.0252 232.078 14.2119C232.478 13.3852 233.032 12.7319 233.738 12.2519C234.445 11.7719 235.252 11.5319 236.158 11.5319C236.932 11.5319 237.625 11.7252 238.238 12.1119C238.865 12.4852 239.352 12.9652 239.698 13.5519V7.59189H242.378V19.1919C242.378 19.4719 242.425 19.6719 242.518 19.7919C242.612 19.9119 242.772 19.9852 242.998 20.0119V22.1919C242.532 22.2852 242.152 22.3319 241.858 22.3319C241.378 22.3319 240.978 22.2119 240.658 21.9719C240.352 21.7319 240.178 21.4186 240.138 21.0319L240.098 20.3719C239.712 21.0252 239.185 21.5252 238.518 21.8719C237.865 22.2186 237.178 22.3919 236.458 22.3919C235.738 22.3919 235.072 22.2519 234.458 21.9719C233.858 21.6919 233.332 21.3052 232.878 20.8119C232.438 20.3186 232.092 19.7452 231.838 19.0919C231.598 18.4252 231.478 17.7119 231.478 16.9519ZM239.698 18.3519V15.8519C239.565 15.4652 239.352 15.1186 239.058 14.8119C238.765 14.5052 238.438 14.2652 238.078 14.0919C237.718 13.9052 237.358 13.8119 236.998 13.8119C236.585 13.8119 236.212 13.8986 235.878 14.0719C235.545 14.2452 235.252 14.4786 234.998 14.7719C234.758 15.0652 234.572 15.4052 234.438 15.7919C234.318 16.1786 234.258 16.5852 234.258 17.0119C234.258 17.4386 234.325 17.8452 234.458 18.2319C234.605 18.6052 234.812 18.9319 235.078 19.2119C235.345 19.4919 235.652 19.7119 235.998 19.8719C236.358 20.0319 236.745 20.1119 237.158 20.1119C237.412 20.1119 237.665 20.0719 237.918 19.9919C238.185 19.8986 238.432 19.7786 238.658 19.6319C238.898 19.4719 239.105 19.2852 239.278 19.0719C239.465 18.8452 239.605 18.6052 239.698 18.3519ZM244.909 18.2719V11.7119H247.589V17.6919C247.589 18.4919 247.736 19.0986 248.029 19.5119C248.322 19.9119 248.756 20.1119 249.329 20.1119C249.676 20.1119 250.016 20.0452 250.349 19.9119C250.696 19.7652 251.009 19.5519 251.289 19.2719C251.582 18.9919 251.829 18.6386 252.029 18.2119V11.7119H254.709V19.1919C254.709 19.4719 254.756 19.6719 254.849 19.7919C254.956 19.9119 255.122 19.9852 255.349 20.0119V22.1919C255.082 22.2319 254.856 22.2586 254.669 22.2719C254.496 22.2986 254.336 22.3119 254.189 22.3119C253.709 22.3119 253.316 22.2052 253.009 21.9919C252.716 21.7652 252.542 21.4586 252.489 21.0719L252.429 20.2319C251.962 20.9386 251.362 21.4786 250.629 21.8519C249.896 22.2119 249.089 22.3919 248.209 22.3919C247.129 22.3919 246.309 22.0452 245.749 21.3519C245.189 20.6452 244.909 19.6186 244.909 18.2719ZM247.309 7.57189H249.789L250.889 9.95189L249.169 10.4719L247.309 7.57189ZM267.112 22.1919H264.432V16.3119C264.432 15.4719 264.286 14.8586 263.992 14.4719C263.699 14.0852 263.292 13.8919 262.772 13.8919C262.412 13.8919 262.046 13.9852 261.672 14.1719C261.312 14.3586 260.986 14.6186 260.692 14.9519C260.399 15.2719 260.186 15.6452 260.052 16.0719V22.1919H257.372V11.7119H259.792V13.6519C260.059 13.1986 260.399 12.8186 260.812 12.5119C261.226 12.1919 261.699 11.9519 262.232 11.7919C262.779 11.6186 263.352 11.5319 263.952 11.5319C264.606 11.5319 265.139 11.6519 265.552 11.8919C265.979 12.1186 266.299 12.4319 266.512 12.8319C266.739 13.2186 266.892 13.6586 266.972 14.1519C267.066 14.6452 267.112 15.1452 267.112 15.6519V22.1919ZM273.543 22.2519C272.849 22.2519 272.209 22.1186 271.623 21.8519C271.049 21.5719 270.549 21.1852 270.123 20.6919C269.709 20.1986 269.389 19.6319 269.163 18.9919C268.936 18.3519 268.823 17.6719 268.823 16.9519C268.823 16.1919 268.943 15.4852 269.183 14.8319C269.423 14.1786 269.756 13.6052 270.183 13.1119C270.623 12.6052 271.136 12.2186 271.723 11.9519C272.323 11.6719 272.983 11.5319 273.703 11.5319C274.516 11.5319 275.229 11.7186 275.843 12.0919C276.456 12.4519 276.963 12.9386 277.363 13.5519V11.7119H279.703V21.6919C279.703 22.7319 279.449 23.6186 278.943 24.3519C278.449 25.0986 277.763 25.6652 276.883 26.0519C276.003 26.4519 275.003 26.6519 273.883 26.6519C272.749 26.6519 271.789 26.4586 271.003 26.0719C270.216 25.6986 269.543 25.1652 268.983 24.4719L270.443 23.0519C270.843 23.5452 271.343 23.9319 271.943 24.2119C272.556 24.4919 273.203 24.6319 273.883 24.6319C274.456 24.6319 274.976 24.5252 275.443 24.3119C275.923 24.1119 276.303 23.7919 276.583 23.3519C276.876 22.9252 277.023 22.3719 277.023 21.6919V20.3719C276.676 20.9719 276.183 21.4386 275.543 21.7719C274.916 22.0919 274.249 22.2519 273.543 22.2519ZM274.443 20.1119C274.736 20.1119 275.016 20.0652 275.283 19.9719C275.549 19.8786 275.796 19.7519 276.023 19.5919C276.249 19.4319 276.449 19.2452 276.623 19.0319C276.796 18.8052 276.929 18.5786 277.023 18.3519V15.8519C276.863 15.4386 276.636 15.0786 276.343 14.7719C276.063 14.4652 275.743 14.2319 275.383 14.0719C275.036 13.8986 274.669 13.8119 274.283 13.8119C273.869 13.8119 273.496 13.8986 273.163 14.0719C272.829 14.2452 272.543 14.4919 272.303 14.8119C272.063 15.1186 271.876 15.4652 271.743 15.8519C271.623 16.2252 271.563 16.6186 271.563 17.0319C271.563 17.4586 271.636 17.8586 271.783 18.2319C271.929 18.6052 272.129 18.9319 272.383 19.2119C272.649 19.4919 272.956 19.7119 273.303 19.8719C273.663 20.0319 274.043 20.1119 274.443 20.1119ZM293.203 21.6519C292.976 21.7452 292.703 21.8519 292.383 21.9719C292.063 22.0919 291.716 22.1852 291.343 22.2519C290.983 22.3319 290.616 22.3719 290.243 22.3719C289.75 22.3719 289.296 22.2852 288.883 22.1119C288.47 21.9386 288.136 21.6652 287.883 21.2919C287.643 20.9052 287.523 20.4052 287.523 19.7919V13.7719H286.143V11.7119H287.523V8.31189H290.203V11.7119H292.403V13.7719H290.203V18.8919C290.216 19.2519 290.316 19.5119 290.503 19.6719C290.69 19.8319 290.923 19.9119 291.203 19.9119C291.483 19.9119 291.756 19.8652 292.023 19.7719C292.29 19.6786 292.503 19.5986 292.663 19.5319L293.203 21.6519ZM304.339 22.1919H301.659V16.3119C301.659 15.4986 301.499 14.8919 301.179 14.4919C300.872 14.0919 300.446 13.8919 299.899 13.8919C299.579 13.8919 299.239 13.9852 298.879 14.1719C298.519 14.3586 298.192 14.6186 297.899 14.9519C297.619 15.2719 297.412 15.6452 297.279 16.0719V22.1919H294.599V7.59189H297.279V13.6519C297.666 12.9852 298.192 12.4652 298.859 12.0919C299.526 11.7186 300.252 11.5319 301.039 11.5319C301.719 11.5319 302.272 11.6519 302.699 11.8919C303.126 12.1186 303.459 12.4319 303.699 12.8319C303.939 13.2186 304.106 13.6586 304.199 14.1519C304.292 14.6319 304.339 15.1319 304.339 15.6519V22.1919ZM306.569 18.2719V11.7119H309.249V17.6919C309.249 18.4919 309.396 19.0986 309.689 19.5119C309.983 19.9119 310.416 20.1119 310.989 20.1119C311.336 20.1119 311.676 20.0452 312.009 19.9119C312.356 19.7652 312.669 19.5519 312.949 19.2719C313.243 18.9919 313.489 18.6386 313.689 18.2119V11.7119H316.369V19.1919C316.369 19.4719 316.416 19.6719 316.509 19.7919C316.616 19.9119 316.783 19.9852 317.009 20.0119V22.1919C316.743 22.2319 316.516 22.2586 316.329 22.2719C316.156 22.2986 315.996 22.3119 315.849 22.3119C315.369 22.3119 314.976 22.2052 314.669 21.9919C314.376 21.7652 314.203 21.4586 314.149 21.0719L314.089 20.2319C313.623 20.9386 313.023 21.4786 312.289 21.8519C311.556 22.2119 310.749 22.3919 309.869 22.3919C308.789 22.3919 307.969 22.0452 307.409 21.3519C306.849 20.6452 306.569 19.6186 306.569 18.2719ZM314.869 13.5719L314.909 11.7319C315.376 11.7319 315.749 11.6986 316.029 11.6319C316.309 11.5519 316.529 11.4319 316.689 11.2719C316.836 11.0852 316.923 10.8852 316.949 10.6719C316.989 10.4452 317.016 10.2052 317.029 9.95189H318.969C318.969 10.2452 318.949 10.5452 318.909 10.8519C318.869 11.1586 318.789 11.4586 318.669 11.7519C318.549 12.0319 318.369 12.3052 318.129 12.5719C317.929 12.7719 317.656 12.9519 317.309 13.1119C316.976 13.2586 316.596 13.3719 316.169 13.4519C315.756 13.5319 315.323 13.5719 314.869 13.5719ZM310.449 8.45189L309.629 7.63189C309.949 7.32523 310.269 7.09856 310.589 6.95189C310.923 6.79189 311.269 6.71189 311.629 6.71189C312.163 6.71189 312.569 6.85856 312.849 7.15189C313.143 7.43189 313.289 7.77856 313.289 8.19189C313.289 8.57856 313.183 8.93189 312.969 9.25189C312.769 9.57189 312.449 9.91189 312.009 10.2719L311.329 9.53189C311.556 9.34523 311.716 9.17856 311.809 9.03189C311.916 8.87189 311.969 8.70523 311.969 8.53189C311.969 8.37189 311.916 8.23856 311.809 8.13189C311.716 8.02523 311.583 7.97189 311.409 7.97189C311.236 7.97189 311.083 8.01189 310.949 8.09189C310.816 8.15856 310.649 8.27856 310.449 8.45189Z" fill="white"/>
<path d="M272.348 60.1847C273.81 60.4841 274.903 61.9321 274.559 63.5264C274.27 64.8561 273.027 65.7646 271.666 65.7646H257.68V71.4002H271.784C271.826 71.4002 271.864 71.4002 271.903 71.3967C274.847 71.2053 277.169 68.7582 277.169 65.7646C277.169 62.9277 275.077 60.5781 272.348 60.1847ZM271.527 60.1221C271.478 60.1221 271.429 60.1221 271.384 60.1256H271.673C271.624 60.1221 271.575 60.1221 271.527 60.1221Z" fill="white"/>
<path d="M229.982 56.0702V77.0392H224.315V62.5378L228.962 55.7604C228.962 55.7604 228.966 55.7535 228.969 55.75C228.99 55.7222 229.011 55.6943 229.039 55.6699C229.133 55.5794 229.262 55.5203 229.405 55.5133H229.45C229.627 55.5203 229.784 55.6143 229.881 55.75C229.885 55.7535 229.888 55.757 229.888 55.7604C229.948 55.851 229.982 55.9554 229.982 56.0702Z" fill="white"/>
<path d="M221.953 64.8457H215.464C215.012 64.8457 214.604 64.6438 214.333 64.3235L213.101 62.7502V56.0738C213.101 55.764 213.351 55.5168 213.658 55.5168C213.845 55.5168 214.013 55.6108 214.114 55.7535C214.117 55.757 214.12 55.7605 214.12 55.764L218.712 61.6223L220.727 64.1947C220.759 64.24 220.79 64.2818 220.825 64.3235C221.096 64.6438 221.503 64.8457 221.956 64.8457H221.953Z" fill="white"/>
<path d="M229.405 55.5133C229.262 55.5203 229.133 55.5794 229.039 55.6699C229.011 55.6943 228.991 55.7222 228.97 55.75C228.966 55.7535 228.963 55.757 228.963 55.7604L224.316 62.5378L223.181 64.1947C223.15 64.2399 223.118 64.2817 223.08 64.3235C222.812 64.6437 222.405 64.8456 221.952 64.8456C221.5 64.8456 221.092 64.6437 220.821 64.3235C220.786 64.2817 220.755 64.2399 220.723 64.1947L218.708 61.6223L223.296 55.7639C223.296 55.7639 223.299 55.757 223.303 55.7535C223.404 55.6108 223.571 55.5168 223.759 55.5168H229.13L229.405 55.5133Z" fill="white"/>
<path d="M195.769 63.8257C195.692 64.2329 195.605 64.6367 195.497 65.0336C194.505 68.7894 192.197 72.0162 189.092 74.1814C187.606 75.2187 185.949 76.0054 184.202 76.4962C183.297 76.7503 182.367 76.9243 181.431 77.0148C180.421 77.1158 179.384 77.0357 178.364 77.067C176.502 77.1192 174.73 77.3281 172.962 77.9407C171.409 78.4803 169.94 79.26 168.618 80.2416C167.048 81.4077 165.802 82.8314 164.688 84.4256C164.065 85.3759 163.543 86.3924 163.132 87.468C163.72 84.4779 164.737 81.6374 166.111 79.0198C166.122 78.9954 166.136 78.9711 166.146 78.9467C166.4 78.4629 166.668 77.9825 166.947 77.5126C166.957 77.4917 166.971 77.4743 166.982 77.4569C167.845 76.1063 168.924 74.9089 170.167 73.9098C171.566 72.782 173.167 71.9083 174.88 71.3514C176.798 70.7283 178.792 70.6587 180.787 70.4916C183.606 70.2549 186.475 69.423 189.099 68.3891C189.11 68.3891 189.12 68.3822 189.127 68.3752C189.677 68.1768 190.22 67.9471 190.739 67.6895C192.66 66.7462 194.369 65.4234 195.762 63.8257H195.769Z" fill="white"/>
<path d="M210.813 42.1919C210.813 42.1919 210.809 42.2163 210.806 42.2302C210.705 42.7662 210.586 43.3023 210.451 43.8244C209.103 48.9205 205.971 53.2925 201.766 56.2269C199.59 57.7411 197.143 58.8654 194.567 59.5094C191.654 60.2404 188.639 60.035 185.663 60.2508C178.764 60.7451 172.481 64.2747 168.683 70.1087C167.841 71.4036 167.127 72.7925 166.57 74.2579C167.392 70.0809 168.819 66.1266 170.761 62.4821C171.047 61.9495 171.343 61.4239 171.649 60.9052C172.846 58.9803 174.357 57.2677 176.115 55.8509C177.942 54.382 180.017 53.2333 182.234 52.478C185.423 51.3919 188.775 51.5137 192.061 51.0055C195.385 50.4904 198.65 49.6062 201.78 48.374C201.79 48.367 201.804 48.36 201.818 48.3566C202.619 48.0677 203.402 47.7335 204.157 47.3541C206.702 46.0766 208.964 44.3152 210.813 42.1919Z" fill="white"/>
<path d="M210.813 42.1919C210.813 42.1919 210.809 42.2163 210.806 42.2302C209.086 45.8294 206.719 48.9274 203.896 51.291C201.588 53.2229 198.995 54.6535 196.266 55.475C193.175 56.4079 189.976 56.1433 186.819 56.4148C179.502 57.0449 172.839 61.5422 168.812 68.9705C167.917 70.6239 167.159 72.3922 166.57 74.2579C167.392 70.0809 168.819 66.1266 170.761 62.4821C171.047 61.9495 171.343 61.4239 171.649 60.9052C172.846 58.9803 174.357 57.2677 176.115 55.8509C177.942 54.382 180.017 53.2333 182.234 52.478C185.423 51.3919 188.775 51.5137 192.061 51.0055C195.385 50.4904 198.65 49.6062 201.78 48.374C201.79 48.367 201.804 48.36 201.818 48.3566C202.619 48.0677 203.402 47.7335 204.157 47.3541C206.702 46.0766 208.964 44.3152 210.813 42.1919Z" fill="white"/>
<path d="M195.769 63.8256C195.769 63.8256 195.769 63.843 195.765 63.8535C194.498 66.5094 192.751 68.7929 190.669 70.5368C188.967 71.9605 187.056 73.0152 185.041 73.6244C182.761 74.3136 180.4 74.1186 178.072 74.3171C172.676 74.78 167.761 78.0973 164.792 83.5762C164.131 84.7946 163.574 86.0999 163.139 87.4749C163.744 84.3943 164.796 81.4773 166.23 78.79C166.439 78.3967 166.658 78.0103 166.884 77.6274C167.768 76.2072 168.882 74.9436 170.177 73.8993C171.524 72.8168 173.056 71.9675 174.692 71.4105C177.045 70.6099 179.516 70.7004 181.939 70.3245C184.39 69.945 186.798 69.2906 189.106 68.3821C189.113 68.3786 189.124 68.3717 189.134 68.3682C189.726 68.1559 190.304 67.9087 190.861 67.6302C192.737 66.6869 194.408 65.3885 195.769 63.8221V63.8256Z" fill="white"/>
<path d="M249.319 68.4761H249.326C250.996 67.8844 252.19 66.2901 252.19 64.4209C252.19 62.0434 250.262 60.115 247.884 60.115C247.794 60.115 247.7 60.1185 247.609 60.1254H247.982C248.595 60.1254 249.172 60.4735 249.402 61.0409C249.785 61.9947 248.998 62.931 248.083 62.931H238.228C235.099 62.931 232.562 65.4686 232.562 68.5979V77.0391H238.228V68.5666H242.506L248.41 77.0391H255.257L249.319 68.4761Z" fill="white"/>
<path d="M254.891 59.7183C255.981 63.7839 253.259 67.7974 249.326 68.4762C250.996 67.8844 252.19 66.2902 252.19 64.421C252.19 62.0435 250.262 60.1151 247.884 60.1151C247.794 60.1151 247.7 60.1186 247.609 60.1255H238.228C235.099 60.1255 232.562 57.5879 232.562 54.4586H247.86C251.111 54.4586 254.053 56.5785 254.895 59.7183H254.891Z" fill="white"/>
<path d="M280.257 62.9763C280.232 67.5606 276.48 71.3374 271.903 71.3966C274.847 71.2051 277.169 68.7581 277.169 65.7645C277.169 62.9276 275.077 60.578 272.348 60.1846C272.338 60.1811 272.331 60.1777 272.32 60.1777C272.146 60.1428 271.965 60.1254 271.784 60.1254H271.673C271.624 60.122 271.575 60.122 271.527 60.122C271.478 60.122 271.429 60.122 271.384 60.1254H257.68V54.4899H271.617C276.285 54.4899 280.281 58.3084 280.257 62.9763Z" fill="white"/>
<path d="M238.228 68.5667V77.0392H232.562V74.2336C232.562 71.1042 235.099 68.5667 238.228 68.5667Z" fill="white"/>
<path d="M213.654 55.5168C213.347 55.5168 213.097 55.764 213.097 56.0738V77.0392H207.43V56.0633C207.43 56.032 207.433 56.0042 207.437 55.9728C207.437 55.9694 207.437 55.9659 207.44 55.9624C207.461 55.858 207.513 55.757 207.593 55.677C207.694 55.576 207.82 55.5238 207.952 55.5168H213.654Z" fill="white"/>
<path d="M263.315 60.1255H257.68V77.0392H263.315V60.1255Z" fill="white"/>
<path d="M199.577 77.0393C199.49 77.0323 199.406 77.0219 199.326 77.0079C198.299 76.8443 197.426 76.2178 196.935 75.3441C196.83 75.1631 196.743 74.9681 196.677 74.7662C196.59 74.5156 196.535 74.2476 196.514 73.9761C198.202 73.983 199.57 75.3545 199.58 77.0393H199.577Z" fill="white"/>
<path d="M198.456 73.332C198.456 73.5687 198.477 73.802 198.526 74.0317C198.293 73.8751 198.042 73.7463 197.778 73.6453C197.718 73.2763 197.722 72.9004 197.795 72.528C198.039 72.5906 198.275 72.6811 198.495 72.8029C198.467 72.977 198.456 73.151 198.456 73.332Z" fill="white"/>
<path d="M200.294 74.881C200.235 74.982 200.165 75.0829 200.096 75.1804C200.026 75.2744 199.949 75.3649 199.866 75.4519C199.323 74.8845 199.017 74.1257 199.017 73.332C199.017 72.5384 199.323 71.7795 199.866 71.2122C200.409 71.783 200.715 72.5419 200.715 73.332C200.715 73.882 200.569 74.4146 200.298 74.881H200.294Z" fill="white"/>
<path d="M201.272 73.3321C201.272 73.1546 201.258 72.977 201.234 72.803C201.453 72.6847 201.69 72.5942 201.934 72.5315C202.007 72.9005 202.01 73.2764 201.951 73.6419C201.686 73.7394 201.436 73.8682 201.206 74.0213C201.251 73.7951 201.272 73.5653 201.272 73.3321Z" fill="white"/>
<path d="M200.05 70.6136L199.866 70.45L199.681 70.6136C199.184 71.0556 198.825 71.6195 198.627 72.2426C198.317 72.0929 197.983 71.985 197.635 71.9293L197.391 71.8876L197.321 72.1243C197.192 72.5698 197.151 73.0293 197.192 73.4783C196.973 73.4366 196.743 73.4157 196.514 73.4122C196.656 71.6892 198.097 70.3351 199.859 70.3351C201.62 70.3351 203.061 71.6892 203.204 73.4122C202.978 73.4122 202.755 73.4331 202.543 73.4749C202.584 73.0258 202.543 72.5663 202.414 72.1208L202.344 71.8841L202.101 71.9259C201.752 71.9815 201.418 72.0895 201.108 72.2391C200.914 71.6161 200.552 71.0521 200.054 70.6101L200.05 70.6136Z" fill="white"/>
<path d="M203.201 73.9727C203.18 74.2476 203.124 74.5122 203.037 74.7628C202.971 74.9647 202.884 75.1596 202.78 75.3441C202.289 76.2109 201.426 76.8374 200.409 77.0045C200.319 77.0184 200.228 77.0324 200.138 77.0393C200.138 76.4754 200.294 75.9463 200.566 75.4938C200.622 75.3963 200.684 75.3024 200.754 75.2084C201.311 74.4635 202.202 73.9796 203.201 73.9761V73.9727Z" fill="white"/>
<path d="M200.096 75.1805C200.169 75.0865 200.235 74.9855 200.294 74.8811C200.221 74.9751 200.155 75.076 200.096 75.1805Z" fill="white"/>
<path d="M200.562 75.4903C200.628 75.3998 200.69 75.3058 200.749 75.2048C200.68 75.2953 200.617 75.3893 200.562 75.4903Z" fill="white"/>
<g filter="url(#filter0_d_23_7586)">
<rect x="282" y="42.1919" width="36" height="20" rx="2" fill="url(#paint0_radial_23_7586)" shape-rendering="crispEdges"/>
<path d="M287.092 57.1919V48.7919H290.74C291.3 48.7919 291.772 48.8759 292.156 49.0439C292.548 49.2039 292.844 49.4399 293.044 49.7519C293.244 50.0639 293.344 50.4359 293.344 50.8679C293.344 51.3479 293.224 51.7479 292.984 52.0679C292.744 52.3879 292.4 52.6079 291.952 52.7279L291.94 52.4879C292.308 52.5759 292.632 52.7199 292.912 52.9199C293.192 53.1199 293.408 53.3679 293.56 53.6639C293.712 53.9599 293.788 54.2959 293.788 54.6719C293.788 55.0879 293.72 55.4559 293.584 55.7759C293.448 56.0879 293.248 56.3479 292.984 56.5559C292.72 56.7639 292.408 56.9239 292.048 57.0359C291.696 57.1399 291.3 57.1919 290.86 57.1919H287.092ZM288.82 55.6319H290.788C291.044 55.6319 291.26 55.5959 291.436 55.5239C291.62 55.4439 291.76 55.3239 291.856 55.1639C291.952 55.0039 292 54.8159 292 54.5999C292 54.3919 291.948 54.2159 291.844 54.0719C291.74 53.9279 291.592 53.8199 291.4 53.7479C291.216 53.6679 290.992 53.6279 290.728 53.6279H288.82V55.6319ZM288.82 52.1999H290.524C290.74 52.1999 290.928 52.1599 291.088 52.0799C291.248 51.9999 291.368 51.8919 291.448 51.7559C291.536 51.6199 291.58 51.4599 291.58 51.2759C291.58 50.9799 291.484 50.7519 291.292 50.5919C291.1 50.4319 290.812 50.3519 290.428 50.3519H288.82V52.1999ZM298.184 57.3119C297.496 57.3119 296.896 57.1719 296.384 56.8919C295.872 56.6119 295.472 56.2279 295.184 55.7399C294.896 55.2519 294.752 54.6919 294.752 54.0599C294.752 53.5719 294.832 53.1239 294.992 52.7159C295.152 52.3079 295.376 51.9559 295.664 51.6599C295.952 51.3559 296.292 51.1239 296.684 50.9639C297.084 50.7959 297.516 50.7119 297.98 50.7119C298.412 50.7119 298.812 50.7919 299.18 50.9519C299.548 51.1039 299.864 51.3239 300.128 51.6119C300.4 51.8919 300.608 52.2239 300.752 52.6079C300.896 52.9919 300.96 53.4119 300.944 53.8679L300.932 54.3959H295.832L295.556 53.3519H299.528L299.336 53.5679V53.3039C299.32 53.0879 299.248 52.8919 299.12 52.7159C299 52.5399 298.844 52.4039 298.652 52.3079C298.46 52.2119 298.244 52.1639 298.004 52.1639C297.652 52.1639 297.352 52.2319 297.104 52.3679C296.864 52.5039 296.68 52.7039 296.552 52.9679C296.424 53.2319 296.36 53.5519 296.36 53.9279C296.36 54.3119 296.44 54.6439 296.6 54.9239C296.768 55.2039 297 55.4239 297.296 55.5839C297.6 55.7359 297.956 55.8119 298.364 55.8119C298.644 55.8119 298.9 55.7679 299.132 55.6799C299.364 55.5919 299.612 55.4399 299.876 55.2239L300.692 56.3639C300.46 56.5719 300.204 56.7479 299.924 56.8919C299.644 57.0279 299.356 57.1319 299.06 57.2039C298.764 57.2759 298.472 57.3119 298.184 57.3119ZM302.816 57.1919V49.2359H304.52V57.1919H302.816ZM301.628 52.3679V50.8439H305.816V52.3679H301.628ZM309.244 57.3119C308.716 57.3119 308.24 57.1679 307.816 56.8799C307.392 56.5919 307.056 56.1999 306.808 55.7039C306.56 55.2079 306.436 54.6399 306.436 53.9999C306.436 53.3599 306.56 52.7959 306.808 52.3079C307.064 51.8119 307.408 51.4239 307.84 51.1439C308.272 50.8559 308.764 50.7119 309.316 50.7119C309.628 50.7119 309.912 50.7599 310.168 50.8559C310.432 50.9439 310.66 51.0679 310.852 51.2279C311.052 51.3879 311.22 51.5719 311.356 51.7799C311.492 51.9879 311.588 52.2119 311.644 52.4519L311.284 52.3919V50.8439H312.976V57.1919H311.26V55.6679L311.644 55.6319C311.58 55.8559 311.476 56.0679 311.332 56.2679C311.188 56.4679 311.008 56.6479 310.792 56.8079C310.584 56.9599 310.348 57.0839 310.084 57.1799C309.82 57.2679 309.54 57.3119 309.244 57.3119ZM309.712 55.8359C310.032 55.8359 310.312 55.7599 310.552 55.6079C310.792 55.4559 310.976 55.2439 311.104 54.9719C311.24 54.6919 311.308 54.3679 311.308 53.9999C311.308 53.6399 311.24 53.3239 311.104 53.0519C310.976 52.7799 310.792 52.5679 310.552 52.4159C310.312 52.2559 310.032 52.1759 309.712 52.1759C309.4 52.1759 309.124 52.2559 308.884 52.4159C308.652 52.5679 308.468 52.7799 308.332 53.0519C308.196 53.3239 308.128 53.6399 308.128 53.9999C308.128 54.3679 308.196 54.6919 308.332 54.9719C308.468 55.2439 308.652 55.4559 308.884 55.6079C309.124 55.7599 309.4 55.8359 309.712 55.8359Z" fill="white"/>
</g>
<defs>
<filter id="filter0_d_23_7586" x="281" y="41.1919" width="40" height="24" filterUnits="userSpaceOnUse" color-interpolation-filters="sRGB">
<feFlood flood-opacity="0" result="BackgroundImageFix"/>
<feColorMatrix in="SourceAlpha" type="matrix" values="0 0 0 0 0 0 0 0 0 0 0 0 0 0 0 0 0 0 127 0" result="hardAlpha"/>
<feOffset dx="1" dy="1"/>
<feGaussianBlur stdDeviation="1"/>
<feComposite in2="hardAlpha" operator="out"/>
<feColorMatrix type="matrix" values="0 0 0 0 0 0 0 0 0 0 0 0 0 0 0 0 0 0 0.25 0"/>
<feBlend mode="normal" in2="BackgroundImageFix" result="effect1_dropShadow_23_7586"/>
<feBlend mode="normal" in="SourceGraphic" in2="effect1_dropShadow_23_7586" result="shape"/>
</filter>
<radialGradient id="paint0_radial_23_7586" cx="0" cy="0" r="1" gradientUnits="userSpaceOnUse" gradientTransform="translate(315.75 42.9062) rotate(131.079) scale(25.1106 15.7602)">
<stop stop-color="#1FC583"/>
<stop offset="1" stop-color="#1F9285"/>
</radialGradient>
</defs>
</svg>
